Coordinates
version=1
nRows=14
nColumns=24
inDegrees=yes

Units are S.I. units (second, meters, Newtons, ...)
Angles are in degrees.

endheader
time	pelvis_tilt	pelvis_list	pelvis_rotation	pelvis_tx	pelvis_ty	pelvis_tz	hip_flexion_r	hip_adduction_r	hip_rotation_r	knee_angle_r	ankle_angle_r	subtalar_angle_r	mtp_angle_r	hip_flexion_l	hip_adduction_l	hip_rotation_l	knee_angle_l	ankle_angle_l	subtalar_angle_l	mtp_angle_l	lumbar_extension	lumbar_bending	lumbar_rotation
      5.70500000	     12.43527172	     -7.34830364	      3.35302456	      1.49573233	      0.91691013	     -0.25043606	    -29.89702896	     10.99951831	     -1.18533877	    -10.59315037	     23.26795381	     10.36246773	      0.00000000	     10.63015184	     -5.10815535	      5.33403545	     -4.02188458	     10.70922990	      1.41675181	      0.00000000	    -29.91366164	      6.69363633	      6.05261161
      5.71000000	     12.41836975	     -7.01526195	      3.26384508	      1.50304063	      0.91651737	     -0.25051944	    -29.94999554	     10.53695073	     -1.50509484	    -11.46981230	     23.12233638	     11.14553494	      0.00000000	     10.59372128	     -4.71152694	      5.39891417	     -4.33868536	     10.58371061	      0.96148703	      0.00000000	    -29.87559717	      6.26061650	      5.93650800
      5.71500000	     12.37455984	     -6.62628867	      3.15329444	      1.51040145	      0.91617006	     -0.25059623	    -29.95140422	     10.00775292	     -1.79312419	    -12.39439098	     22.95023999	     11.92015891	      0.00000000	     10.58528336	     -4.25369684	      5.45439609	     -4.76755550	     10.46690455	      0.51084066	      0.00000000	    -29.80182105	      5.75960416	      5.81143840
      5.72000000	     12.38892851	     -6.19856501	      3.09805213	      1.51777668	      0.91591174	     -0.25078280	    -29.97995737	      9.45332386	     -2.23880698	    -13.38118425	     22.71144482	     12.77064825	      0.00000000	     10.51537746	     -3.74170706	      5.56493937	     -5.26730154	     10.37395153	      0.01079357	      0.00000000	    -29.78725797	      5.25494591	      5.62394423
      5.72500000	     12.35397912	     -5.72169175	      3.00706668	      1.52521005	      0.91567789	     -0.25093309	    -29.93425474	      8.83484262	     -2.59790075	    -14.41289904	     22.43677630	     13.58037543	      0.00000000	     10.49620063	     -3.17824441	      5.63576982	     -5.86573163	     10.27429747	     -0.45692815	      0.00000000	    -29.71161634	      4.67438145	      5.45344639
      5.73000000	     12.38527297	     -5.20999492	      2.98049695	      1.53264784	      0.91551409	     -0.25123058	    -29.92626879	      8.19647640	     -3.09706201	    -15.50376120	     22.11122732	     14.46510561	      0.00000000	     10.40745661	     -2.56061919	      5.80403535	     -6.52124983	     10.20540415	     -0.98384614	      0.00000000	    -29.70720738	      4.10337729	      5.20474629
      5.73500000	     12.29697878	     -4.67093581	      2.84284937	      1.54020365	      0.91532311	     -0.25131849	    -29.76162391	      7.49139954	     -3.40516883	    -16.66800221	     21.75342787	     15.18924341	      0.00000000	     10.42126460	     -1.93549687	      5.81816635	     -7.22718031	     10.14620732	     -1.39056498	      0.00000000	    -29.55325109	      3.43215815	      5.04736806
      5.74000000	     12.24233341	     -4.11954785	      2.74118259	      1.54774803	      0.91520670	     -0.25159102	    -29.59806176	      6.76070570	     -3.83591879	    -17.88567149	     21.30195354	     16.07101398	      0.00000000	     10.39886186	     -1.27852310	      5.87420392	     -7.97386362	     10.03743419	     -1.85936554	      0.00000000	    -29.43835709	      2.79301913	      4.86855411
      5.74500000	     12.29255577	     -3.53229946	      2.76899428	      1.55521348	      0.91516049	     -0.25207766	    -29.52225828	      6.04367436	     -4.40742831	    -19.12931326	     20.79941479	     16.98773304	      0.00000000	     10.28409976	     -0.55464116	      6.10848957	     -8.77648767	      9.90671986	     -2.41938983	      0.00000000	    -29.45235649	      2.19083257	      4.54849297
      5.75000000	     12.18967818	     -2.93843560	      2.64087377	      1.56292217	      0.91509119	     -0.25227489	    -29.25673405	      5.25888190	     -4.75436171	    -20.43963712	     20.16810256	     17.69090514	      0.00000000	     10.27138109	      0.13697481	      6.08256809	     -9.54462534	      9.82486810	     -2.75063918	      0.00000000	    -29.25299735	      1.48123394	      4.37596299
      5.75500000	     12.19945778	     -2.33061459	      2.62937446	      1.57046399	      0.91508238	     -0.25278792	    -29.07400175	      4.48129180	     -5.27161982	    -21.79604218	     19.54190566	     18.56863183	      0.00000000	     10.16477198	      0.88447434	      6.27248518	    -10.36509561	      9.68471036	     -3.29395681	      0.00000000	    -29.20871321	      0.84924236	      4.09733043
      5.76000000	     12.13676527	     -1.72950013	      2.53744193	      1.57809642	      0.91507893	     -0.25315271	    -28.77492273	      3.67347404	     -5.66267395	    -23.21820261	     18.82381987	     19.31562443	      0.00000000	     10.09937312	      1.60064839	      6.30862939	    -11.15358772	      9.57551297	     -3.67035458	      0.00000000	    -29.06570451	      0.17528776	      3.90000700
      5.76500000	     12.04164591	     -1.12493575	      2.41886880	      1.58577086	      0.91508096	     -0.25345806	    -28.40650971	      2.84892669	     -5.98999442	    -24.68836878	     18.04340476	     19.96104812	      0.00000000	     10.04883966	      2.30944259	      6.27636726	    -11.92714621	      9.48819227	     -3.94632564	      0.00000000	    -28.87645291	     -0.51953236	      3.72499071
      5.77000000	     11.96355809	     -0.53201751	      2.31683072	      1.59340965	      0.91512631	     -0.25383654	    -28.01655145	      2.02779506	     -6.32338123	    -26.20590424	     17.18587719	     20.59899176	      0.00000000	      9.96058720	      3.01256724	      6.28513872	    -12.66376391	      9.38567227	     -4.26987739	      0.00000000	    -28.70873008	     -1.18567582	      3.55427494
